<?xml version="1.0" standalone="no"?>
<!DOCTYPE svg PUBLIC "-//W3C//DTD SVG 20010904//EN"
 "http://www.w3.org/TR/2001/REC-SVG-20010904/DTD/svg10.dtd">
<svg version="1.0" xmlns="http://www.w3.org/2000/svg"
 width="128.000000pt" height="128.000000pt" viewBox="0 0 128.000000 128.000000"
 preserveAspectRatio="xMidYMid meet">
<metadata>
Created by potrace 1.16, written by Peter Selinger 2001-2019
</metadata>
<g transform="translate(0.000000,128.000000) scale(0.100000,-0.100000)"
fill="#000000" stroke="none">
<path d="M571 1267 c-7 -9 -12 -92 -13 -236 l-3 -222 -90 100 c-49 55 -99 102
-109 105 -45 12 -79 -38 -53 -77 8 -12 69 -81 136 -154 66 -73 121 -137 121
-143 0 -6 -55 -71 -121 -143 -67 -73 -128 -142 -136 -154 -26 -39 8 -89 53
-77 10 3 60 50 109 105 l90 100 3 -222 c1 -144 6 -227 13 -236 29 -34 64 -15
237 128 94 78 174 150 177 160 9 27 -3 43 -144 196 -66 73 -121 137 -121 143
0 6 55 70 121 143 141 153 153 169 144 196 -3 10 -83 82 -177 160 -173 143
-208 162 -237 128z m207 -237 c44 -36 81 -67 81 -70 0 -3 -44 -52 -99 -110
l-99 -105 -1 188 c0 181 1 188 18 175 11 -7 55 -42 100 -78z m81 -710 c0 -5
-140 -119 -181 -148 -17 -13 -18 -6 -18 175 l1 188 99 -105 c55 -58 99 -107
99 -110z"/>
</g>
</svg>
