<svg width="34" height="39" viewBox="0 0 34 39" fill="none" xmlns="http://www.w3.org/2000/svg">
<path d="M7.83333 34.6667C8.365 34.6667 8.86 34.5567 9.22667 34.3917C10.5283 33.7133 11.445 32.7783 12.3617 30.0283C13.2967 27.1683 15.0567 25.83 16.7433 24.5283C18.1917 23.41 19.695 22.255 20.9967 19.89C21.9683 18.13 22.5 16.205 22.5 14.5C22.5 9.36666 18.4667 5.33333 13.3333 5.33333C8.2 5.33333 4.16667 9.36666 4.16667 14.5H0.5C0.5 7.295 6.12833 1.66666 13.3333 1.66666C20.5383 1.66666 26.1667 7.295 26.1667 14.5C26.1667 16.81 25.47 19.3583 24.205 21.65C22.5367 24.675 20.575 26.1967 18.98 27.425C17.495 28.5617 16.4317 29.3867 15.845 31.1833C14.745 34.52 13.3333 36.39 10.84 37.6917C9.905 38.1133 8.87833 38.3333 7.83333 38.3333C3.78167 38.3333 0.5 35.0517 0.5 31H4.16667C4.16667 33.0167 5.81667 34.6667 7.83333 34.6667ZM24.9933 2.84L27.5967 0.236664C31.245 3.885 33.5 8.92666 33.5 14.5C33.5 20.0733 31.245 25.115 27.5967 28.7633L25.0117 26.1783C27.9817 23.19 29.8333 19.065 29.8333 14.5C29.8333 9.935 27.9817 5.81 24.9933 2.84ZM17.9167 14.5C17.9167 17.03 15.8633 19.0833 13.3333 19.0833C10.8033 19.0833 8.75 17.03 8.75 14.5C8.75 11.97 10.8033 9.91666 13.3333 9.91666C15.8633 9.91666 17.9167 11.97 17.9167 14.5Z" fill="black"/>
</svg>
