<svg width="34" height="39" viewBox="0 0 34 39" fill="none" xmlns="http://www.w3.org/2000/svg">
<path d="M26.1667 34.6667C25.635 34.6667 25.14 34.5567 24.7733 34.3917C23.4717 33.7133 22.555 32.7783 21.6383 30.0283C20.7033 27.1683 18.9433 25.83 17.2567 24.5283C15.8083 23.41 14.305 22.255 13.0033 19.89C12.0317 18.13 11.5 16.205 11.5 14.5C11.5 9.36666 15.5333 5.33333 20.6667 5.33333C25.8 5.33333 29.8333 9.36666 29.8333 14.5H33.5C33.5 7.295 27.8717 1.66666 20.6667 1.66666C13.4617 1.66666 7.83333 7.295 7.83333 14.5C7.83333 16.81 8.53 19.3583 9.795 21.65C11.4633 24.675 13.425 26.1967 15.02 27.425C16.505 28.5617 17.5683 29.3867 18.155 31.1833C19.255 34.52 20.6667 36.39 23.16 37.6917C24.095 38.1133 25.1217 38.3333 26.1667 38.3333C30.2183 38.3333 33.5 35.0517 33.5 31H29.8333C29.8333 33.0167 28.1833 34.6667 26.1667 34.6667ZM9.00667 2.84L6.40333 0.236664C2.755 3.885 0.5 8.92666 0.5 14.5C0.5 20.0733 2.755 25.115 6.40333 28.7633L8.98833 26.1783C6.01833 23.19 4.16667 19.065 4.16667 14.5C4.16667 9.935 6.01833 5.81 9.00667 2.84ZM16.0833 14.5C16.0833 17.03 18.1367 19.0833 20.6667 19.0833C23.1967 19.0833 25.25 17.03 25.25 14.5C25.25 11.97 23.1967 9.91666 20.6667 9.91666C18.1367 9.91666 16.0833 11.97 16.0833 14.5Z" fill="black"/>
</svg>
